HIERARCHY
ROOT Hips
{
	OFFSET 0.00 0.00 0.00
	CHANNELS 6 Xposition Yposition Zposition Xrotation Yrotation Zrotation
	JOINT Spine
	{
		OFFSET 0.00000 5.19526 0.00000
		CHANNELS 3 Xrotation Yrotation Zrotation
		JOINT Head
		{
			OFFSET 0.00000 15.65388 0.00000
			CHANNELS 3 Xrotation Yrotation Zrotation
			End Site
			{
				OFFSET 0.00000 4.52755 0.00000
			}
		}
		JOINT LeftShoulder
		{
			OFFSET 0.00000 10.32977 0.00000
			CHANNELS 3 Xrotation Yrotation Zrotation
			JOINT LeftArm
			{
				OFFSET 6.99601 0.00000 0.00000
				CHANNELS 3 Xrotation Yrotation Zrotation
				JOINT LeftForeArm
				{
					OFFSET 10.20930 0.00000 0.00000
					CHANNELS 3 Yrotation Zrotation Xrotation
					JOINT LeftHand
					{
						OFFSET 8.56316 0.00000 0.00000
						CHANNELS 3 Xrotation Yrotation Zrotation
						JOINT LeftHandThumb1
						{
							OFFSET 0.00000 0.00000 0.00000
							CHANNELS 3 Xrotation Zrotation Yrotation
							End Site
							{
								OFFSET 0.00000 0.00000 3.93700
							}
						}
						End Site
						{
							OFFSET 3.93700 0.00000 0.00000
						}
					}
				}
			}
		}
		JOINT RightShoulder
		{
			OFFSET 0.00000 10.32977 0.00000
			CHANNELS 3 Xrotation Yrotation Zrotation
			JOINT RightArm
			{
				OFFSET -6.99601 0.00000 0.00000
				CHANNELS 3 Xrotation Yrotation Zrotation
				JOINT RightForeArm
				{
					OFFSET -10.20930 0.00000 0.00000
					CHANNELS 3 Yrotation Zrotation Xrotation
					JOINT RightHand
					{
						OFFSET -8.56316 0.00000 0.00000
						CHANNELS 3 Xrotation Yrotation Zrotation
						JOINT RightHandThumb1
						{
							OFFSET 0.00000 0.00000 0.00000
							CHANNELS 3 Xrotation Zrotation Yrotation
							End Site
							{
								OFFSET 0.00000 0.00000 3.93700
							}
						}
						End Site
						{
							OFFSET -3.93700 0.00000 0.00000
						}
					}
				}
			}
		}
	}
	JOINT LeftUpLeg
	{
		OFFSET 3.35136 0.00000 0.00000
		CHANNELS 3 Xrotation Yrotation Zrotation
		JOINT LeftLeg
		{
			OFFSET 0.00000 -16.34683 0.00000
			CHANNELS 3 Xrotation Yrotation Zrotation
			JOINT LeftFoot
			{
				OFFSET 0.00000 -13.95979 0.00000
				CHANNELS 3 Xrotation Yrotation Zrotation
				JOINT LeftToeBase
				{
					OFFSET 0.00000 -1.33694 4.98954
					CHANNELS 3 Xrotation Yrotation Zrotation
					End Site
					{
						OFFSET 0.00000 0.00000 2.95275
					}
				}
			}
		}
	}
	JOINT RightUpLeg
	{
		OFFSET -3.35136 0.00000 0.00000
		CHANNELS 3 Xrotation Yrotation Zrotation
		JOINT RightLeg
		{
			OFFSET 0.00000 -16.34683 0.00000
			CHANNELS 3 Xrotation Yrotation Zrotation
			JOINT RightFoot
			{
				OFFSET 0.00000 -13.95979 0.00000
				CHANNELS 3 Xrotation Yrotation Zrotation
				JOINT RightToeBase
				{
					OFFSET 0.00000 -1.33694 4.98954
					CHANNELS 3 Xrotation Yrotation Zrotation
					End Site
					{
						OFFSET 0.00000 0.00000 2.95275
					}
				}
			}
		}
	}
}
MOTION
Frames:	23
Frame Time: 0.008333
1.5470 31.7803 -5.7471 4.9155 -5.0890 -3.3506 -5.5110 6.7551 2.0631 1.9047 -9.0667 1.7624 -12.2989 5.3386 37.1932 -23.4468 -11.1449 -32.1854 -6.5060 0.0000 24.6475 4.1260 13.8786 -16.7379 32.8623 0.0000 24.3270 6.0871 -22.3426 -25.3379 -26.6666 13.7829 22.1250 0.3113 0.0000 2.4579 0.8888 -14.4337 3.5613 33.1476 -0.0000 -26.2537 1.5031 7.1487 5.2527 -4.4037 0.0000 -0.0000 -12.9770 16.4660 2.4199 3.8129 -0.0000 -0.0000 -0.5852 -1.8121 0.6107 0.1880 -0.0000 -0.0000 -10.6036 -27.8124 12.1231 9.7227 -0.0000 -0.0000
1.5458 31.7804 -5.7465 4.9201 -5.0874 -3.3510 -5.5181 6.7426 2.0648 1.9124 -9.0624 1.7636 -12.2940 5.3332 37.1973 -23.4597 -11.1309 -32.1831 -6.5092 -0.0000 24.6403 4.1321 13.8390 -16.8060 32.8623 0.0000 24.3270 6.1085 -22.3387 -25.3180 -26.7131 13.7713 22.1167 0.3343 -0.0000 2.4568 0.8650 -14.4456 3.4637 33.1476 -0.0000 -26.2537 1.4929 7.1548 5.2561 -4.3896 0.0000 -0.0000 -12.9798 16.4583 2.4167 3.7835 -0.0000 -0.0000 -0.5867 -1.8370 0.6146 0.1813 -0.0000 -0.0000 -10.5898 -27.7979 12.1239 9.6582 -0.0000 -0.0000
1.5451 31.7806 -5.7456 4.9216 -5.0971 -3.3520 -5.5210 6.7389 2.0676 1.9157 -9.0388 1.7749 -12.3041 5.3174 37.1969 -23.4424 -11.1330 -32.1732 -6.4912 -0.0000 24.5870 4.1303 13.7917 -16.8522 32.8623 0.0000 24.3270 6.0947 -22.3192 -25.3033 -26.7023 13.7754 22.0936 0.3702 0.0000 2.4422 0.8631 -14.5991 3.4204 33.1476 -0.0000 -26.2537 1.4907 7.1785 5.2562 -4.3864 0.0000 -0.0000 -12.9875 16.4485 2.4243 3.8001 -0.0000 -0.0000 -0.5823 -1.8123 0.6162 0.1712 -0.0000 -0.0000 -10.5919 -27.8101 12.1111 9.7690 -0.0000 -0.0000
1.5447 31.7808 -5.7452 4.9275 -5.1060 -3.3491 -5.5286 6.7489 2.0663 1.9145 -9.0361 1.7812 -12.2816 5.3148 37.2018 -23.4996 -11.0945 -32.1859 -6.5137 0.0000 24.6106 4.1352 13.7894 -16.8739 32.8623 0.0000 24.3270 6.1015 -22.3299 -25.2844 -26.7451 13.7771 22.0911 0.3776 -0.0000 2.4041 0.8345 -14.5987 3.3075 33.1476 -0.0000 -26.2537 1.4778 7.2145 5.2523 -4.3739 0.0000 -0.0000 -12.9913 16.4254 2.4164 3.8018 -0.0000 -0.0000 -0.5859 -1.8086 0.6144 0.1614 -0.0000 -0.0000 -10.5795 -27.8035 12.1236 9.7042 -0.0000 -0.0000
1.5436 31.7803 -5.7446 4.9323 -5.1146 -3.3510 -5.5413 6.7500 2.0631 1.9169 -9.0122 1.7823 -12.2943 5.2970 37.2164 -23.4747 -11.1241 -32.1968 -6.4868 0.0000 24.6606 4.1729 13.7922 -17.0162 32.8623 0.0000 24.3270 6.1045 -22.2981 -25.2573 -26.7110 13.7782 22.0507 0.3718 -0.0000 2.3223 0.8287 -14.6487 3.2736 33.1476 -0.0000 -26.2537 1.4976 7.1669 5.2590 -4.4124 0.0000 -0.0000 -12.9724 16.4731 2.4154 3.7870 -0.0000 -0.0000 -0.5874 -1.7993 0.6259 0.1656 -0.0000 -0.0000 -10.5897 -27.8419 12.1596 9.7265 -0.0000 -0.0000
1.5435 31.7809 -5.7441 4.9412 -5.1143 -3.3461 -5.5463 6.7474 2.0704 1.9113 -9.0375 1.7874 -12.2929 5.2986 37.2043 -23.5068 -11.0984 -32.1996 -6.5026 0.0000 24.6182 4.1234 13.7448 -16.8786 32.8623 0.0000 24.3270 6.0818 -22.3235 -25.2716 -26.7442 13.8086 22.0750 0.3570 0.0000 2.2744 0.8103 -14.6632 3.1978 33.1476 -0.0000 -26.2537 1.4761 7.2046 5.2525 -4.3911 0.0000 -0.0000 -12.9819 16.4401 2.4389 3.7737 -0.0000 -0.0000 -0.5927 -1.8112 0.6176 0.1519 -0.0000 -0.0000 -10.5767 -27.8125 12.1320 9.6935 -0.0000 -0.0000
1.5417 31.7805 -5.7436 4.9458 -5.1215 -3.3524 -5.5600 6.7568 2.0698 1.9165 -9.0164 1.7848 -12.2805 5.2815 37.2193 -23.5023 -11.1178 -32.2133 -6.4906 -0.0000 24.6639 4.1863 13.8339 -17.0204 32.8623 0.0000 24.3270 6.1329 -22.3294 -25.2291 -26.7880 13.8085 22.0514 0.3387 0.0000 2.2227 0.8031 -14.6591 3.1703 33.1476 -0.0000 -26.2537 1.4664 7.2294 5.2626 -4.3840 0.0000 -0.0000 -12.9863 16.4304 2.3967 3.7926 -0.0000 -0.0000 -0.5905 -1.7941 0.6275 0.1380 -0.0000 -0.0000 -10.5700 -27.8125 12.1298 9.7055 -0.0000 -0.0000
1.5408 31.7804 -5.7431 4.9473 -5.1256 -3.3531 -5.5598 6.7596 2.0735 1.8998 -9.0108 1.7794 -12.2826 5.2786 37.2277 -23.5029 -11.1216 -32.2332 -6.5053 -0.0000 24.6857 4.2078 13.9326 -16.9912 32.8623 0.0000 24.3270 6.1206 -22.3302 -25.2296 -26.7906 13.8208 22.0527 0.3230 -0.0000 2.1704 0.8032 -14.6748 3.1674 33.1476 -0.0000 -26.2537 1.4649 7.2318 5.2646 -4.3798 0.0000 -0.0000 -12.9947 16.4306 2.4082 3.7869 -0.0000 -0.0000 -0.5849 -1.7773 0.6276 0.1221 -0.0000 -0.0000 -10.5618 -27.8198 12.1279 9.7116 -0.0000 -0.0000
1.5404 31.7803 -5.7425 4.9488 -5.1302 -3.3506 -5.5609 6.7595 2.0776 1.8927 -9.0015 1.7680 -12.2857 5.2764 37.2229 -23.4885 -11.1284 -32.2379 -6.5190 -0.0000 24.6947 4.1943 13.9228 -16.9504 32.8623 0.0000 24.3270 6.1247 -22.3315 -25.2379 -26.8257 13.8099 22.0672 0.3186 0.0000 2.1464 0.7957 -14.6572 3.1415 33.1476 -0.0000 -26.2537 1.4657 7.2292 5.2627 -4.3805 0.0000 -0.0000 -12.9967 16.4394 2.4151 3.8028 -0.0000 -0.0000 -0.5835 -1.7714 0.6283 0.1176 -0.0000 -0.0000 -10.5636 -27.8203 12.1158 9.7345 -0.0000 -0.0000
1.5386 31.7801 -5.7409 4.9513 -5.1374 -3.3479 -5.5703 6.7571 2.0736 1.9035 -8.9830 1.7749 -12.3000 5.2668 37.2223 -23.4687 -11.1443 -32.2352 -6.5150 -0.0000 24.7133 4.1937 13.9154 -16.9564 32.8623 0.0000 24.3270 6.1250 -22.3241 -25.2339 -26.8354 13.8178 22.0706 0.3079 0.0000 2.1209 0.8023 -14.6698 3.1652 33.1476 -0.0000 -26.2537 1.4695 7.2444 5.2622 -4.3884 0.0000 -0.0000 -12.9825 16.4347 2.3920 3.7580 -0.0000 -0.0000 -0.5822 -1.7678 0.6281 0.1132 -0.0000 -0.0000 -10.5722 -27.8289 12.1131 9.7242 -0.0000 -0.0000
1.5380 31.7801 -5.7413 4.9540 -5.1424 -3.3538 -5.5696 6.7581 2.0864 1.8900 -8.9879 1.7676 -12.3037 5.2613 37.2205 -23.4608 -11.1485 -32.2424 -6.5149 0.0000 24.7315 4.1850 13.8978 -16.9429 32.8623 0.0000 24.3270 6.1143 -22.3151 -25.2441 -26.8288 13.8109 22.0734 0.3027 -0.0000 2.0899 0.8025 -14.6580 3.1683 33.1476 -0.0000 -26.2537 1.4617 7.2456 5.2703 -4.3785 0.0000 -0.0000 -12.9942 16.4369 2.4005 3.7571 -0.0000 -0.0000 -0.5839 -1.7678 0.6352 0.1093 -0.0000 -0.0000 -10.5661 -27.8183 12.1292 9.7225 -0.0000 -0.0000
1.5367 31.7801 -5.7411 4.9559 -5.1462 -3.3519 -5.5717 6.7543 2.0845 1.8905 -8.9723 1.7686 -12.2966 5.2637 37.2146 -23.4829 -11.1426 -32.2401 -6.5173 -0.0000 24.7334 4.1687 13.8458 -16.9393 32.8623 0.0000 24.3270 6.1189 -22.3123 -25.2417 -26.8350 13.8174 22.0755 0.2933 0.0000 2.0743 0.8122 -14.6235 3.2137 33.1476 -0.0000 -26.2537 1.4609 7.2502 5.2716 -4.3815 0.0000 -0.0000 -12.9917 16.4350 2.4067 3.7639 -0.0000 -0.0000 -0.5828 -1.7718 0.6374 0.1029 -0.0000 -0.0000 -10.5602 -27.8148 12.1221 9.7203 -0.0000 -0.0000
1.5353 31.7802 -5.7404 4.9573 -5.1553 -3.3486 -5.5718 6.7630 2.0813 1.8812 -8.9579 1.7751 -12.2942 5.2457 37.2181 -23.4817 -11.1187 -32.2439 -6.5407 0.0000 24.7326 4.1739 13.8635 -16.9389 32.8623 0.0000 24.3270 6.1139 -22.3068 -25.2500 -26.8062 13.8096 22.0788 0.3083 0.0000 2.0276 0.8295 -14.6294 3.2810 33.1476 -0.0000 -26.2537 1.4589 7.2652 5.2704 -4.3749 0.0000 -0.0000 -12.9989 16.4323 2.4025 3.8216 -0.0000 -0.0000 -0.5802 -1.7519 0.6363 0.0919 -0.0000 -0.0000 -10.5630 -27.8216 12.1039 9.7067 -0.0000 -0.0000
1.5333 31.7805 -5.7403 4.9595 -5.1613 -3.3598 -5.5756 6.7626 2.0921 1.8760 -8.9509 1.7742 -12.2903 5.2479 37.2229 -23.5145 -11.1067 -32.2635 -6.5424 -0.0000 24.7224 4.1636 13.8622 -16.9010 32.8623 0.0000 24.3270 6.1300 -22.3118 -25.2370 -26.8232 13.8180 22.0751 0.3030 -0.0000 2.0216 0.8438 -14.6204 3.3396 33.1476 -0.0000 -26.2537 1.4559 7.2639 5.2859 -4.3734 0.0000 -0.0000 -13.0043 16.4347 2.4017 3.7951 -0.0000 -0.0000 -0.5539 -1.6178 0.6570 0.0403 -0.0000 -0.0000 -10.5400 -27.9886 12.1661 9.6946 -0.0000 -0.0000
1.5341 31.7798 -5.7397 4.9598 -5.1668 -3.3518 -5.5719 6.7554 2.1076 1.8810 -8.9883 1.7759 -12.3063 5.2872 37.1769 -23.5446 -11.1482 -32.2444 -6.5288 -0.0000 24.7610 4.1159 13.7519 -16.8417 32.8623 0.0000 24.3270 6.1457 -22.3517 -25.2662 -26.8812 13.8552 22.1125 0.2843 0.0000 1.9976 0.8579 -14.6009 3.3995 33.1476 -0.0000 -26.2537 1.4575 7.2665 5.2735 -4.3730 0.0000 -0.0000 -13.0052 16.4439 2.4190 3.7924 -0.0000 -0.0000 -0.5747 -1.7113 0.6410 0.0758 -0.0000 -0.0000 -10.5605 -27.8519 12.1293 9.7573 -0.0000 -0.0000
1.5336 31.7799 -5.7394 4.9598 -5.1704 -3.3518 -5.5715 6.7552 2.1091 1.8831 -8.9781 1.7873 -12.3106 5.2721 37.1696 -23.5346 -11.1590 -32.2392 -6.5168 0.0000 24.7638 4.1681 13.7771 -17.0149 32.8623 0.0000 24.3270 6.1483 -22.3487 -25.2663 -26.8748 13.8558 22.1088 0.2784 0.0000 1.9792 0.8745 -14.5640 3.4736 33.1476 -0.0000 -26.2537 1.4580 7.2605 5.2754 -4.3702 0.0000 -0.0000 -13.0039 16.4577 2.4094 3.8208 -0.0000 -0.0000 -0.5736 -1.7234 0.6419 0.0716 -0.0000 -0.0000 -10.5451 -27.8281 12.1183 9.7104 -0.0000 -0.0000
1.5324 31.7796 -5.7378 4.9595 -5.1790 -3.3529 -5.5790 6.7652 2.1048 1.8683 -8.9253 1.7475 -12.2915 5.2796 37.1907 -23.5931 -11.1453 -32.2747 -6.5157 0.0000 24.8028 4.1719 13.7953 -17.0086 32.8623 0.0000 24.3270 6.1535 -22.3426 -25.2552 -26.8585 13.8520 22.0988 0.2772 0.0000 1.9398 0.8904 -14.5405 3.5424 33.1476 -0.0000 -26.2537 1.4632 7.2717 5.2785 -4.3733 0.0000 -0.0000 -13.0125 16.4481 2.4254 3.7717 -0.0000 -0.0000 -0.5702 -1.7264 0.6458 0.0705 -0.0000 -0.0000 -10.5498 -27.8204 12.0979 9.7004 -0.0000 -0.0000
1.5311 31.7796 -5.7380 4.9612 -5.1793 -3.3533 -5.5813 6.7687 2.1030 1.8698 -8.9172 1.7477 -12.3123 5.2473 37.2054 -23.5992 -11.1133 -32.3003 -6.5251 -0.0000 24.8320 4.1809 13.8187 -17.0170 32.8623 0.0000 24.3270 6.1590 -22.3452 -25.2487 -26.8774 13.8473 22.1010 0.2558 -0.0000 1.9217 0.9152 -14.5594 3.6361 33.1476 -0.0000 -26.2537 1.4582 7.2748 5.2813 -4.3684 0.0000 -0.0000 -13.0174 16.4485 2.4154 3.8247 -0.0000 -0.0000 -0.5699 -1.7226 0.6486 0.0657 -0.0000 -0.0000 -10.5459 -27.8293 12.1065 9.7209 -0.0000 -0.0000
1.5302 31.7795 -5.7374 4.9630 -5.1879 -3.3525 -5.5810 6.7710 2.1035 1.8607 -8.9090 1.7498 -12.3188 5.2515 37.2146 -23.6091 -11.1080 -32.3189 -6.5314 0.0000 24.8234 4.1872 13.8460 -17.0100 32.8623 0.0000 24.3270 6.1377 -22.3441 -25.2604 -26.8967 13.8364 22.1208 0.2630 0.0000 1.9275 0.9171 -14.5422 3.6477 33.1476 -0.0000 -26.2537 1.4603 7.2716 5.2832 -4.3712 0.0000 -0.0000 -13.0184 16.4583 2.4179 3.7912 -0.0000 -0.0000 -0.5743 -1.7151 0.6493 0.0694 -0.0000 -0.0000 -10.5546 -27.8199 12.1004 9.6842 -0.0000 -0.0000
1.5290 31.7794 -5.7363 4.9634 -5.1902 -3.3538 -5.5834 6.7717 2.1053 1.8656 -8.9020 1.7561 -12.3044 5.2624 37.2215 -23.6495 -11.0933 -32.3389 -6.5376 0.0000 24.8533 4.1800 13.8308 -16.9996 32.8623 0.0000 24.3270 6.1303 -22.3555 -25.2546 -26.9011 13.8521 22.1221 0.2579 0.0000 1.8916 0.8901 -14.4813 3.5550 33.1476 -0.0000 -26.2537 1.4579 7.2861 5.2862 -4.3664 0.0000 -0.0000 -13.0141 16.4462 2.4091 3.7856 -0.0000 -0.0000 -0.5691 -1.7040 0.6578 0.0719 -0.0000 -0.0000 -10.5640 -27.8591 12.1469 9.7219 -0.0000 -0.0000
1.5289 31.7792 -5.7355 4.9646 -5.1947 -3.3513 -5.5878 6.7706 2.1081 1.8717 -8.8994 1.7455 -12.3325 5.2367 37.2122 -23.4940 -11.1584 -32.3050 -6.5679 0.0000 24.7239 4.2021 13.9073 -16.9978 32.8623 0.0000 24.3270 6.1511 -22.3652 -25.2501 -26.9544 13.8366 22.1311 0.2725 0.0000 1.8783 0.8866 -14.5029 3.5362 33.1476 -0.0000 -26.2537 1.4640 7.2759 5.2844 -4.3727 0.0000 -0.0000 -13.0087 16.4582 2.4027 3.7667 -0.0000 -0.0000 -0.5643 -1.7031 0.6513 0.0506 -0.0000 -0.0000 -10.5465 -27.8283 12.1081 9.7104 -0.0000 -0.0000
1.5274 31.7791 -5.7352 4.9666 -5.1960 -3.3527 -5.5902 6.7680 2.1082 1.8806 -8.8866 1.7482 -12.3212 5.2443 37.2191 -23.4992 -11.1662 -32.3122 -6.5635 -0.0000 24.7193 4.2179 14.0191 -16.9324 32.8623 0.0000 24.3270 6.1631 -22.3882 -25.2334 -26.9952 13.8579 22.1364 0.2589 -0.0000 1.8224 0.8971 -14.5020 3.5782 33.1476 -0.0000 -26.2537 1.4564 7.2887 5.2884 -4.3632 0.0000 -0.0000 -13.0201 16.4512 2.4119 3.7577 -0.0000 -0.0000 -0.5663 -1.7026 0.6563 0.0534 -0.0000 -0.0000 -10.5576 -27.8375 12.0902 9.6702 -0.0000 -0.0000
1.5261 31.7792 -5.7348 4.9679 -5.1984 -3.3524 -5.5909 6.7720 2.1040 1.8799 -8.8837 1.7610 -12.3161 5.2601 37.2298 -23.5244 -11.1888 -32.3332 -6.5530 -0.0000 24.7119 4.2328 14.0798 -16.9212 32.8623 0.0000 24.3270 6.1506 -22.3850 -25.2236 -26.9877 13.8434 22.1269 0.2745 0.0000 1.7996 0.8871 -14.4894 3.5415 33.1476 -0.0000 -26.2537 1.4592 7.2865 5.2905 -4.3680 0.0000 -0.0000 -13.0145 16.4540 2.4056 3.7913 -0.0000 -0.0000 -0.5663 -1.7159 0.6569 0.0519 -0.0000 -0.0000 -10.5550 -27.8068 12.1029 9.7286 -0.0000 -0.0000
